<svg width="1229" height="450" viewBox="0 0 1229 450" fill="none" xmlns="http://www.w3.org/2000/svg">
<g >
<path d="M0 166.731L54.7236 259.142L76.613 238.201L16.8731 149.433L0 166.731Z" fill="url(#paint0_linear_302_2)"/>
<path d="M814.469 93.8957L812.189 106.187L838.183 97.5375L834.99 82.5151L814.469 93.8957Z" fill="#0071B9"/>
<path d="M661.243 10.5899L576.878 107.097L601.503 100.269L681.764 0.11972L661.243 10.5899Z" fill="url(#paint1_linear_302_2)"/>
<path d="M1113.17 142.605L1133.69 131.679L1127.76 183.575L1113.17 142.605Z" fill="#1D2C5E"/>
<path d="M984.112 175.836L1002.81 179.933L1026.07 168.552L1005.55 160.814L984.112 175.836Z" fill="#1D2C5E"/>
<path d="M349.319 121.209L352.055 180.843L378.049 170.828L370.296 109.829L349.319 121.209Z" fill="url(#paint2_linear_302_2)"/>
<path d="M1004.18 103L983.656 114.381L984.112 175.836L1005.09 165.366L1011.47 135.321L1004.18 103Z" fill="url(#paint3_linear_302_2)"/>
<path d="M1001.44 179.933L978.64 382.052L1015.12 374.768L1021.96 169.008L1001.44 179.933Z" fill="#312370"/>
<path d="M1045.68 391.612L1046.59 418.925L1116.36 441.231L1137.34 430.306L1068.48 377.045L999.161 371.127L978.64 382.052L1045.68 391.612Z" fill="#21386E"/>
<path d="M786.651 343.358L803.524 334.254L814.925 354.283L830.886 345.634L834.078 372.037L935.773 390.246L955.838 378.865L815.837 293.739L716.423 310.582L697.269 329.246L786.651 343.358Z" fill="#21386E"/>
<path d="M754.273 94.8062L733.752 106.187L697.269 329.246L717.791 318.321L752.905 193.134L754.273 94.8062Z" fill="url(#paint4_linear_302_2)"/>
<path d="M591.927 124.851L575.51 133.5L576.878 138.963L615.64 114.381L598.767 96.1718L576.878 107.097L591.927 124.851Z" fill="#1D2C5E"/>
<path d="M636.161 388.425L470.623 306.485L491.144 290.552L656.683 377.045L636.161 388.425Z" fill="#21386E"/>
<path d="M486.128 83.4256L461.046 130.769L487.496 123.03L506.649 72.045L486.128 83.4256Z" fill="#1D2C5E"/>
<path d="M258.113 279.627L237.135 294.194C237.135 294.194 241.696 317.866 247.624 334.254C253.553 350.642 267.233 363.843 267.233 363.843C276.354 372.492 286.843 378.865 299.156 382.507C322.413 389.336 348.863 384.783 371.664 370.216C377.593 366.574 385.801 360.657 390.817 355.649C368.472 369.306 258.113 279.627 258.113 279.627Z" fill="url(#paint5_linear_302_2)"/>
<path d="M371.664 176.291L390.817 388.88L470.167 377.5L491.144 366.574L393.098 163.545L373.032 170.373L352.055 180.843L371.664 176.291Z" fill="#1D2C5E"/>
<path d="M75.2448 250.037L163.715 449.88L247.624 423.022L268.145 409.365L93.9421 227.276L72.0526 240.478L54.7235 259.142L75.2448 250.037Z" fill="url(#paint6_linear_302_2)"/>
<path d="M950.366 344.268L951.734 354.283C959.03 353.373 966.327 352.463 973.167 350.186C980.92 347.455 997.337 340.171 1003.27 334.709C1000.53 335.619 962.223 345.634 950.366 344.268Z" fill="#1D2C5E"/>
<path d="M653.49 293.283L656.683 309.216C673.556 306.485 688.149 300.567 702.742 291.918C711.862 286.455 721.439 278.716 724.631 276.44C722.351 277.806 653.49 293.283 653.49 293.283Z" fill="#1D2C5E"/>
<path d="M186.74 430.825L180.355 416.257L96.4458 229.616L94.6217 225.974L90.9734 227.795L88.2372 229.161L73.1883 236.444C70.9081 232.803 67.2599 226.429 64.9797 222.332L31.2335 165.429L22.569 150.407L37.1619 141.303C50.8428 132.653 66.3478 124.459 83.6769 117.176C117.423 103.064 151.625 95.3251 183.091 95.3251C193.58 95.3251 203.613 96.2356 212.733 97.6012C228.238 99.4221 242.831 104.43 254.688 112.624C272.473 122.638 286.61 138.116 294.363 156.325C300.747 171.347 302.115 189.101 298.011 207.31L295.731 218.235L304.851 211.862C310.78 207.31 317.164 203.668 324.005 200.937C335.861 195.929 348.174 193.198 360.487 193.198C372.344 193.198 383.288 195.474 393.321 200.026L399.705 202.758L399.249 195.474L396.513 164.974L396.057 159.967L391.497 161.332L377.36 164.974L375.08 113.079L479.055 79.8475L478.143 120.362L485.895 122.183L508.697 78.9371L576.645 139.027L579.381 141.758L582.117 139.027C591.238 130.377 602.639 123.094 614.952 118.086L619.968 115.81L616.32 111.258L604.007 96.2356L681.988 6.55658L723.031 67.5565L660.554 101.243L646.874 108.527L662.835 108.982C692.477 109.437 718.926 122.183 736.711 144.034L743.096 152.228L747.2 157.235L740.36 164.519L735.799 169.527L720.294 186.37L717.558 189.556L720.75 192.288L735.343 205.489L740.816 210.497L742.184 203.213L747.656 168.616L749.024 159.512L750.392 150.407L758.601 98.9669H836.126L836.582 95.3251L837.95 86.6759H905.442L921.86 189.556L922.772 196.385L928.244 192.288C935.084 187.28 942.381 183.638 950.133 180.452C960.622 176.355 971.111 174.534 982.055 174.534C994.824 174.534 1007.14 177.265 1017.63 183.183C1018.08 183.183 1018.08 183.638 1018.99 184.094L1024.01 185.915L1024.47 180.452L1025.83 169.071L1026.29 165.429L1022.64 164.519L1008.96 161.332L1008.51 107.616L1112.94 130.377L1120.69 169.071H1128.9L1137.11 135.84L1224.21 156.78L1134.83 424.907L1071.44 404.877L1070.98 380.295V376.653L1067.33 376.198L1003.94 367.093L1007.59 334.773L1008.51 327.034L1001.66 330.676C998.472 332.496 995.28 333.862 992.088 334.773C981.599 338.87 971.111 340.69 960.622 340.69C957.43 340.69 954.694 340.69 951.501 340.235L946.029 339.78L946.941 345.243L951.501 373.466L858.927 357.078L853.911 315.198L852.543 301.541L846.159 313.377L835.67 333.862L816.061 297.899L810.132 286.974L808.308 299.265L804.204 327.034L723.031 314.287L729.415 276.049L730.783 267.4L723.031 271.952C709.806 279.691 694.301 286.064 676.516 290.161C670.131 291.526 663.747 292.892 656.906 293.347L653.258 293.802V370.28L493.648 291.526L487.719 288.795V362.996L416.123 373.466L412.93 341.146L412.018 332.496L405.634 338.414C396.057 347.519 385.569 354.802 374.168 359.81C362.311 364.817 349.998 367.549 338.141 367.549C325.829 367.549 314.428 364.817 303.939 360.265C284.786 351.161 270.649 334.317 264.721 312.922C261.985 302.907 261.072 292.437 262.441 281.511L263.809 270.131L255.6 278.325C249.672 283.788 243.287 289.25 236.447 294.258L234.167 296.079L235.079 298.81L259.248 390.765L263.353 407.153L247.392 412.16L202.245 426.728L186.74 430.825ZM206.805 183.638C204.525 183.638 202.245 183.638 199.508 184.094L196.316 184.549L191.756 185.459L193.124 190.012L194.036 192.743L206.805 235.079L208.173 239.176L209.997 245.094L214.557 240.997L217.75 238.265C230.519 226.885 234.623 215.504 231.887 200.937C230.062 192.288 223.678 188.191 219.574 186.37C216.838 184.549 211.821 183.638 206.805 183.638ZM554.3 185.004L546.091 192.743L524.658 213.228L520.097 217.78L526.026 220.056L548.827 228.706L555.668 231.437L554.3 224.153C552.475 214.594 552.019 205.034 552.931 195.929L554.3 185.004ZM647.33 161.332C638.665 161.332 630.001 164.974 624.072 171.803C614.952 181.818 613.127 196.84 619.512 208.676L621.336 211.862L624.072 216.87L628.176 212.317L630.913 209.586L662.379 174.079L664.659 171.347L668.763 166.795L663.291 164.519L659.642 163.153C655.082 162.243 651.434 161.332 647.33 161.332Z" fill="#FFCB05"/>
<path d="M694.989 214.075L694.077 214.985C694.533 214.985 694.989 214.53 694.989 214.075Z" fill="#7D7F68"/>
<path d="M722.351 189.493L737.856 172.649L732.384 178.112V177.657L727.823 182.664L712.318 199.052L726.911 212.254L729.648 195.866L736.944 202.239L722.351 189.493Z" fill="#7D7F68"/>
<path d="M722.351 189.493L736.944 202.239L742.416 167.642L737.856 172.649L722.351 189.493Z" fill="#7D7F68"/>
<path d="M614.272 230.918C615.64 232.284 614.272 231.373 615.64 232.284L625.217 225.455C623.849 224.545 622.481 223.179 621.112 222.269C607.432 209.522 611.08 181.299 619.744 165.821C596.031 184.94 597.399 214.075 614.272 230.918Z" fill="#C7A008"/>
<path d="M729.647 246.851C713.686 260.052 695.901 268.246 672.188 274.164C667.171 275.53 661.699 276.44 657.139 276.44C619.288 280.082 587.822 262.784 575.966 235.015C574.597 231.828 573.229 228.187 572.317 224.545C566.845 200.873 571.405 179.933 583.262 163.09C584.63 161.269 585.542 159.903 586.91 158.537C586.454 158.993 585.542 159.448 585.086 159.903C580.526 164 576.422 168.097 573.229 173.105C561.373 189.493 556.812 210.888 562.285 234.56C563.197 238.201 564.109 241.843 565.933 245.03C577.79 273.254 609.712 290.552 647.106 286.91C652.122 286.455 657.139 285.545 662.611 284.179C686.325 278.261 704.566 270.067 720.071 256.866C723.719 253.679 727.823 250.037 731.472 246.395L731.016 245.94C730.104 246.395 729.647 246.395 729.647 246.851Z" fill="#C7A008"/>
<path d="M463.782 175.381L505.737 116.202L503.913 114.836L463.326 171.739L463.782 175.381Z" fill="#C7A008"/>
<path d="M742.416 167.642L736.944 202.239L729.648 195.866L726.911 212.254L712.318 199.052L727.823 182.664L732.384 177.657V178.112L737.856 172.649L742.416 167.642Z" fill="#C7A008"/>
<path d="M690.429 70.2241L705.022 63.851L678.116 29.254L669.452 42.0003L690.429 70.2241Z" fill="#C7A008"/>
<path d="M281.826 155.806C213.422 72.9554 90.7499 117.567 46.9711 156.261L48.7952 159.448C58.8278 153.53 69.7726 148.522 80.7173 143.515C124.496 124.851 166.451 119.388 199.741 125.306C211.598 126.672 223.911 130.314 234.855 137.597C249.904 146.246 261.305 158.082 268.145 173.56C280.002 200.873 269.514 237.291 241.696 267.336C276.81 235.015 300.98 204.06 281.826 155.806Z" fill="#C7A008"/>
<path d="M420.915 252.313C420.459 250.948 420.459 249.127 420.003 247.761C416.355 234.104 408.147 223.179 397.202 215.896C379.873 204.06 355.247 201.784 331.078 211.799C318.309 217.261 307.364 225.91 298.243 235.925C305.084 230.007 312.836 225.455 321.045 221.813C345.214 211.343 369.84 214.075 387.169 225.91C398.114 233.194 406.322 244.119 409.971 257.776C410.427 259.142 410.883 260.963 410.883 262.328C411.795 267.791 412.251 272.798 412.251 278.261C411.795 294.194 405.866 310.127 396.29 323.783C394.922 326.06 393.098 327.88 391.273 330.157C396.746 325.149 401.762 320.142 405.866 314.224C415.899 300.567 421.371 284.634 422.283 268.701C422.283 263.239 421.827 257.776 420.915 252.313Z" fill="#C7A008"/>
<path d="M353.879 232.284C353.879 232.284 363.912 222.269 363.456 222.269C351.143 221.813 345.671 233.649 345.214 234.56C347.951 233.194 350.687 232.739 353.879 232.284Z" fill="#C7A008"/>
<path d="M377.137 246.395C377.593 248.216 378.049 249.582 378.049 251.403C378.049 254.134 377.593 256.41 376.224 258.687C378.049 257.776 392.642 250.492 387.169 235.925C387.625 236.836 376.681 246.395 377.137 246.395Z" fill="#C7A008"/>
<path d="M320.589 255.045C320.589 249.127 331.078 234.104 334.27 229.097C317.853 239.567 310.556 253.679 310.556 264.604C310.556 283.724 327.429 299.201 347.495 299.201C357.071 299.201 374.4 294.194 385.801 275.985C379.873 280.082 364.824 289.186 356.615 289.186C336.55 289.186 320.589 274.164 320.589 255.045Z" fill="#C7A008"/>
<path d="M461.502 272.343L461.958 349.276L474.271 350.186L471.535 262.328L461.502 272.343Z" fill="#C7A008"/>
<path d="M391.273 125.306V132.134L449.645 114.836L453.749 189.037L463.782 175.381L461.502 101.179L391.273 125.306Z" fill="#C7A008"/>
<path d="M566.845 151.709L512.577 101.635L505.737 116.202L554.076 161.269L566.845 151.709Z" fill="#C7A008"/>
<path d="M558.636 245.03L494.336 223.634L485.216 233.649L549.06 259.142C556.356 272.798 567.301 284.634 580.982 292.828C594.207 301.022 609.712 306.03 625.673 307.395V338.806L635.705 343.813L638.898 296.47L558.636 245.03Z" fill="#C7A008"/>
<path d="M661.699 236.381C677.66 232.739 686.325 224.545 694.533 215.44C688.605 220.448 659.419 226.821 654.403 228.187L644.826 238.657C648.93 238.657 656.227 237.746 661.699 236.381Z" fill="#C7A008"/>
<path d="M632.969 127.127C603.783 130.769 588.734 155.351 586.454 158.082C597.399 148.978 610.624 142.149 625.673 138.963C661.699 130.314 693.165 141.239 712.774 165.366L725.087 155.351C705.478 131.679 668.996 118.478 632.969 127.127Z" fill="#C7A008"/>
<path d="M730.56 245.94C734.208 243.209 740.136 240.022 743.784 236.381L705.022 201.784C701.83 205.425 699.55 211.343 695.901 214.075L730.56 245.94Z" fill="#C7A008"/>
<path d="M929.844 338.806C889.258 305.119 891.538 233.649 911.603 210.888L893.818 98.4479L854.599 103.455L852.775 113.47H882.417L898.378 215.44C878.313 238.201 868.736 268.701 875.121 296.925C880.137 318.776 893.818 336.074 912.971 346.089C914.795 347 917.076 347.91 918.9 348.821L919.356 350.186L931.212 352.007C930.756 352.463 932.125 339.716 929.844 338.806Z" fill="#C7A008"/>
<path d="M773.426 114.836L771.602 124.851H816.293L829.518 197.231L839.551 187.216L829.062 110.739L773.426 114.836Z" fill="#C7A008"/>
<path d="M850.039 255.045L835.446 292.373L839.095 302.388L859.616 245.485L850.039 255.045Z" fill="#C7A008"/>
<path d="M807.173 231.828L797.14 241.843L786.195 309.216L796.684 312.858L807.173 231.828Z" fill="#C7A008"/>
<path d="M1008.28 209.978C1014.21 214.075 1019.23 219.537 1022.87 225.91C1026.07 230.918 1027.89 235.925 1029.72 242.298C1034.73 262.784 1028.8 284.634 1016.03 301.933C1014.67 303.754 1013.3 305.575 1011.93 306.94C1016.95 302.388 1080.79 255.5 1018.77 194.045C950.366 171.739 924.372 215.896 922.092 219.082C929.388 213.164 937.597 207.702 946.718 204.515C969.519 195.41 992.321 198.597 1008.28 209.978Z" fill="#C7A008"/>
<path d="M974.079 214.53C974.079 214.985 984.112 204.515 984.112 204.515C971.799 204.97 965.871 210.888 966.783 213.619C965.871 214.53 965.415 215.896 964.959 216.806C967.239 215.44 972.255 214.53 974.079 214.53Z" fill="#C7A008"/>
<path d="M996.881 230.007C997.337 231.828 997.337 233.194 997.337 235.015C997.337 237.291 996.425 239.567 995.513 241.388C997.337 240.478 1011.93 235.925 1006.46 219.537C1006.91 220.448 996.425 230.007 996.881 230.007Z" fill="#C7A008"/>
<path d="M964.503 281.448C978.184 281.903 993.689 273.709 1004.63 258.687C976.816 264.604 947.174 217.716 949.91 213.164C939.421 220.903 929.845 235.47 929.388 245.94C928.476 265.06 944.437 280.537 964.503 281.448Z" fill="#C7A008"/>
<path d="M1118.18 402.992L1124.57 407.089L1204.83 166.731L1144.63 153.075L1144.18 167.187L1192.52 177.657L1118.18 402.992Z" fill="#C7A008"/>
<path d="M1022.87 127.127L1023.33 140.784L1087.17 153.53L1111.8 270.067L1121.83 260.052L1098.12 142.149L1022.87 127.127Z" fill="#C7A008"/>
<path d="M1072.13 260.052L1054.34 359.291L1064.37 362.477L1082.16 250.037L1072.13 260.052Z" fill="#C7A008"/>
<path d="M243.52 395.709L213.878 287.366L202.933 295.104L230.751 398.44L243.52 395.709Z" fill="#C7A008"/>
<path d="M235.767 233.194C228.927 240.478 213.422 254.59 204.757 260.052L199.285 243.209L187.884 205.881L180.588 180.843L173.291 189.948L180.588 214.985L191.988 251.858L197.461 268.701C209.774 261.873 227.103 247.306 235.767 233.194Z" fill="#C7A008"/>
<path d="M658.963 169.008C649.386 165.366 636.161 166.276 628.865 174.47C627.041 176.291 623.849 180.843 622.937 183.119C629.777 177.657 642.546 176.291 650.298 179.478L658.963 169.008Z" fill="#7D7F68"/>
<path d="M227.559 202.694C226.647 197.231 221.174 192.679 218.438 191.313C213.878 189.037 205.213 188.582 199.285 189.948C200.197 193.59 201.565 198.142 202.021 199.963C204.301 200.418 208.406 200.873 210.686 201.784C213.422 203.149 217.982 205.881 218.894 211.799C220.262 219.082 219.806 226.366 216.614 231.828C225.279 223.634 229.383 214.53 227.559 202.694Z" fill="#7D7F68"/>
<path d="M242.375 202.303C238.271 180.452 209.541 168.161 180.811 183.638L188.108 208.676L199.509 246.004L204.981 262.847C226.414 249.646 247.848 232.803 242.375 202.303ZM214.101 236.444C210.909 226.429 204.069 204.579 204.069 204.579C204.069 204.579 202.701 200.026 200.877 194.564C206.805 193.653 212.733 194.109 217.294 196.385C220.03 197.75 224.59 200.482 225.502 206.4C228.238 218.235 224.134 227.34 214.101 236.444Z" fill="#3C5AA6"/>
<path d="M673.779 167.706C657.818 153.138 633.193 154.049 618.6 169.982C604.007 185.915 604.919 210.497 620.88 225.064C622.248 226.429 623.616 227.34 624.984 228.25L676.515 169.982C675.603 169.526 674.691 168.616 673.779 167.706ZM625.44 208.676C620.424 199.571 621.336 187.735 629.088 179.541C636.385 171.803 647.33 169.526 656.906 173.168L625.44 208.676Z" fill="#3567B0"/>
<path d="M742.416 161.269L714.142 188.582L741.048 212.709L742.416 161.269Z" fill="#1E2D5F"/>
<path d="M1006.46 219.993C1006.91 221.813 1006.91 223.634 1006.91 225.455C1006.46 236.381 996.425 244.575 984.112 244.119C971.799 243.664 962.223 234.56 962.679 223.634C963.135 213.619 972.255 205.425 983.2 204.97C980.92 204.515 978.64 204.06 976.36 204.06C955.838 203.149 939.421 217.716 938.509 235.47C937.597 254.589 953.102 270.522 973.167 270.978C993.689 271.888 1010.11 257.321 1011.02 238.201C1012.39 231.828 1010.11 225.455 1006.46 219.993Z" fill="#3466AF"/>
<path d="M388.081 241.843C388.081 252.769 378.049 261.418 366.192 261.418C353.879 261.418 344.302 252.769 344.302 241.843C344.302 231.828 352.967 223.179 364.368 222.269C362.088 221.813 359.807 221.813 357.527 221.813C337.006 221.813 321.045 236.836 321.045 255.045C321.045 274.164 337.006 289.186 357.071 289.186C377.593 289.186 393.554 274.164 393.554 255.045C393.554 248.216 391.273 242.298 387.625 236.836C387.625 238.201 388.081 240.022 388.081 241.843Z" fill="url(#paint7_linear_302_2)"/>
<path d="M1133.46 131.743L1124.34 169.071L1116.13 127.646L1003.94 103.064L1004.86 165.429L1021.73 169.071L1020.36 180.452C1020.36 180.452 1019.91 180.452 1019.91 179.997C998.928 169.071 972.935 167.706 948.765 177.265C940.557 180.452 932.804 184.549 925.964 189.556L909.091 83.0341H834.758L832.934 95.3251H754.496L745.376 149.952L738.991 141.758C719.838 118.542 692.476 105.795 661.922 104.885L728.503 69.3774L681.988 0.183472L598.078 96.6908L612.671 114.444C599.446 119.907 588.046 127.191 578.469 136.295L506.416 72.564L481.335 120.362L482.247 73.9296L369.607 109.892L372.8 169.982L391.953 164.974L394.689 195.474C372.8 185.459 346.35 185.915 322.18 196.385C314.884 199.571 308.043 203.213 302.115 207.765C306.219 189.101 305.307 170.892 298.011 154.504C289.802 135.385 274.753 118.997 256.968 108.982C244.199 100.333 229.15 95.3251 213.189 93.5042C174.427 86.6759 127.456 93.5042 81.3967 113.079C64.5236 120.362 48.5626 128.556 34.4257 137.661L16.6405 149.041L27.5852 167.25L61.3314 224.609L71.8201 241.907L90.0613 232.803L92.7974 231.437L176.707 418.078L184.915 435.832L203.613 429.914L248.76 415.347L268.825 408.974L263.809 388.944L239.639 296.989C246.479 291.982 252.864 286.519 258.792 280.601C257.424 291.526 258.336 302.907 261.072 313.377C267.457 335.683 282.05 353.437 302.571 362.996C324.461 373.467 351.366 373.467 375.992 362.996C388.305 357.534 399.705 350.25 408.826 340.69L412.018 377.564L491.367 365.728V294.713L656.906 376.653V297.899C663.747 297.444 670.131 296.079 676.971 294.713C695.213 290.161 710.718 284.243 724.854 276.049L718.014 318.385L807.396 332.496L812.412 300.176L835.67 343.422L849.807 316.108L854.823 361.176L956.062 378.929L950.589 344.787C964.27 346.153 978.863 344.332 993 339.325C996.192 337.959 999.84 336.593 1002.58 334.773L998.472 371.19L1065.96 380.75L1066.42 408.519L1136.65 430.369L1228.31 154.959L1133.46 131.743ZM737.623 172.713L742.184 167.706L736.711 202.303L722.118 189.101L737.623 172.713ZM678.339 30.6834L702.965 63.9147L632.737 98.5117L627.72 91.2281C627.72 91.6833 678.339 30.6834 678.339 30.6834ZM213.645 287.429L241.463 394.862L196.316 409.429L103.286 201.847C98.2698 204.579 88.6932 209.131 80.4847 213.228L46.7385 156.325C59.9633 147.676 75.0123 140.392 90.5173 133.564C134.296 114.9 176.251 109.437 209.541 115.355C221.398 116.721 233.711 120.362 244.655 127.646C259.704 136.295 271.105 148.131 277.946 163.609C294.363 200.937 267.457 254.653 213.645 287.429ZM422.051 268.31C421.595 284.243 415.666 300.176 405.634 313.832C396.057 327.034 383.288 337.504 367.783 344.332C328.565 361.176 289.346 344.332 278.858 307.004C268.825 271.041 292.538 228.25 330.389 211.862C354.558 201.392 379.184 204.123 396.513 215.959C407.458 223.243 415.666 234.168 419.315 247.825C419.771 249.191 420.227 251.011 420.227 252.377C422.051 257.84 422.051 263.302 422.051 268.31ZM635.929 344.332L471.302 262.392L471.758 348.429L429.347 354.347L426.155 318.84C439.38 296.534 443.94 269.676 437.1 245.549C433.452 232.347 426.611 220.512 417.035 211.407L411.106 139.027L391.953 144.034L391.041 125.825L459.445 105.34L463.55 175.444L513.713 104.885L563.42 151.773L494.56 224.153L559.316 249.646C566.612 263.302 577.557 274.683 591.238 283.332C604.463 291.526 619.968 296.534 635.929 297.899V344.332ZM550.651 225.064L527.85 216.415L549.283 195.929C547.915 205.489 548.371 215.049 550.651 225.064ZM729.415 246.914C713.454 260.116 695.669 268.31 671.955 274.228C666.939 275.594 661.466 276.504 656.906 276.504C619.056 280.146 587.59 262.847 575.733 235.079C574.365 231.892 572.997 228.25 572.085 224.609C566.612 200.937 571.173 179.997 583.029 163.153C586.222 158.146 590.326 154.049 594.886 149.952C605.831 139.937 619.968 133.109 635.929 129.012C671.955 120.362 703.421 131.288 723.03 154.959L654.626 227.795C659.186 228.706 666.483 227.34 671.955 225.974C688.372 221.877 697.493 213.228 705.245 204.123L732.607 228.706L740.816 235.989C737.167 240.086 733.519 243.728 729.415 246.914ZM874.888 343.877L859.839 245.549L838.862 299.72L807.396 231.892H806.94L794.627 310.646L742.184 301.541L749.48 257.84C751.304 256.019 753.584 254.198 755.409 251.922L772.282 234.623L755.865 219.601L773.65 114.9H826.549L839.774 187.28L854.823 103.519H892.673L908.634 205.489C888.569 228.25 878.993 258.75 885.377 286.974C890.393 308.825 904.074 326.123 923.227 336.593C925.052 337.504 927.332 338.414 929.156 339.325L930.98 352.526L874.888 343.877ZM1005.77 311.556C999.84 315.653 993.456 319.295 986.616 321.571C972.935 326.579 959.71 327.944 947.397 325.213C939.188 323.392 931.436 320.205 924.596 315.653C914.107 307.914 906.354 296.989 902.706 282.877C898.602 266.034 902.25 247.825 911.371 231.892C915.931 224.153 921.859 216.87 928.7 210.497C936.452 203.668 945.573 197.75 955.149 194.109C978.407 185.459 1001.21 188.646 1017.17 200.026C1023.1 204.123 1028.11 209.586 1031.76 215.959C1034.5 220.967 1036.78 226.429 1038.15 232.347C1043.16 252.832 1037.23 274.683 1024.47 291.982C1020.36 299.72 1013.52 306.093 1005.77 311.556ZM1124.34 404.422L1085.57 393.041L1082.38 250.101L1062.77 360.265L1020.36 353.437L1023.55 321.571C1051.37 298.355 1065.96 261.482 1057.76 227.795C1054.11 213.228 1046.81 200.026 1035.87 190.467L1039.51 153.138L1023.55 149.041L1024.01 129.012L1096.97 143.579L1121.6 259.661L1146.68 155.415L1202.32 167.706L1124.34 404.422Z" fill="url(#paint8_linear_302_2)"/>
</g>
<defs>
<linearGradient id="paint0_linear_302_2" x1="60.6519" y1="243.773" x2="15.0923" y2="158.725" gradientUnits="userSpaceOnUse">
<stop stop-color="#0070B6"/>
<stop offset="1" stop-color="#1D2C5E"/>
</linearGradient>
<linearGradient id="paint1_linear_302_2" x1="617.806" y1="70.1604" x2="675.681" y2="8.03856" gradientUnits="userSpaceOnUse">
<stop stop-color="#0070B6"/>
<stop offset="1" stop-color="#1D2C5E"/>
</linearGradient>
<linearGradient id="paint2_linear_302_2" x1="364.833" y1="173.56" x2="357.944" y2="115.571" gradientUnits="userSpaceOnUse">
<stop stop-color="#0070B6"/>
<stop offset="1" stop-color="#1D2C5E"/>
</linearGradient>
<linearGradient id="paint3_linear_302_2" x1="998.231" y1="162.398" x2="995.481" y2="110.056" gradientUnits="userSpaceOnUse">
<stop stop-color="#125D9E"/>
<stop offset="1" stop-color="#1D2C5E"/>
</linearGradient>
<linearGradient id="paint4_linear_302_2" x1="804.714" y1="86.9536" x2="744.016" y2="183.685" gradientUnits="userSpaceOnUse">
<stop stop-color="#125D9E"/>
<stop offset="1" stop-color="#1D2C5E"/>
</linearGradient>
<linearGradient id="paint5_linear_302_2" x1="266.185" y1="241.948" x2="307.558" y2="323.46" gradientUnits="userSpaceOnUse">
<stop stop-color="#105FA1"/>
<stop offset="1" stop-color="#1D2C5E"/>
</linearGradient>
<linearGradient id="paint6_linear_302_2" x1="109.634" y1="214.147" x2="157.511" y2="325.329" gradientUnits="userSpaceOnUse">
<stop stop-color="#105FA1"/>
<stop offset="1" stop-color="#1D2C5E"/>
</linearGradient>
<linearGradient id="paint7_linear_302_2" x1="320.384" y1="255.427" x2="393.025" y2="255.427" gradientUnits="userSpaceOnUse">
<stop stop-color="#3C5AA6"/>
<stop offset="0.933" stop-color="#2B73B9"/>
<stop offset="1" stop-color="#2A75BB"/>
</linearGradient>
<linearGradient id="paint8_linear_302_2" x1="16.9916" y1="218.103" x2="1228.86" y2="218.103" gradientUnits="userSpaceOnUse">
<stop stop-color="#3C5AA6"/>
<stop offset="0.933" stop-color="#2B73B9"/>
<stop offset="1" stop-color="#2A75BB"/>
</linearGradient>
<clipPath id="clip0_302_2">
<rect width="1229" height="450" fill="white"/>
</clipPath>
</defs>
</svg>
